<svg xmlns="http://www.w3.org/2000/svg" width="1090.669" height="69.945" viewBox="0 0 1090.669 69.945">
  <defs>
    <style>
      .cls-1, .cls-2 {
        fill: #fff;
      }

      .cls-2 {
        fill-rule: evenodd;
      }
    </style>
  </defs>
  <g id="Group_61" data-name="Group 61" transform="translate(-341.79 -3667)">
    <g id="Group_43" data-name="Group 43" transform="translate(0 -54)">
      <g id="wordpress-svgrepo-com" transform="translate(341.79 3720.8)">
        <g id="Group_29" data-name="Group 29" transform="translate(29.421 37.004)">
          <g id="Group_28" data-name="Group 28">
            <path id="Path_134" data-name="Path 134" class="cls-1" d="M217.94,265.4h-.111L212,282.387a19.817,19.817,0,0,0,12.046-.278C221.992,276.5,219.994,270.951,217.94,265.4Z" transform="translate(-212 -265.4)"/>
          </g>
        </g>
        <g id="Group_31" data-name="Group 31" transform="translate(15.314 27.29)">
          <g id="Group_30" data-name="Group 30">
            <path id="Path_135" data-name="Path 135" class="cls-1" d="M112.13,195.4h-.111a19.725,19.725,0,0,0,9.326,25.535c.056,0,.056-.056.111-.056C118.347,212.331,115.238,203.893,112.13,195.4Z" transform="translate(-110.346 -195.4)"/>
          </g>
        </g>
        <g id="Group_33" data-name="Group 33" transform="translate(18.541 15.514)">
          <g id="Group_32" data-name="Group 32">
            <path id="Path_136" data-name="Path 136" class="cls-1" d="M162.077,124.6c-.444-.833-.944-1.61-1.443-2.443a6.74,6.74,0,0,1-.888-2.5,3.507,3.507,0,0,1,2.831-3.886,6.822,6.822,0,0,1,.722-.111c-5.44-4.552-11.491-6.162-18.263-4.441a19.19,19.19,0,0,0-11.435,8.216h2.887c1.166-.056,2.331-.167,3.5-.222a.767.767,0,0,1,.944.666c.056.5-.167.833-.777.888a1.537,1.537,0,0,1-.5.056c-.555.056-1.055.111-1.665.167,2.387,7.105,4.774,14.155,7.105,21.15q.167-.083.167-.167c1.388-4.108,2.776-8.216,4.108-12.379a1.154,1.154,0,0,0-.056-.611c-.888-2.554-1.832-5.052-2.776-7.605a.55.55,0,0,0-.611-.444c-.555,0-1.11-.111-1.665-.167a.781.781,0,0,1,.111-1.554c.222,0,.389.056.611.056l6.384.167c1.11,0,2.276-.111,3.386-.167a.815.815,0,0,1,.888.722.718.718,0,0,1-.666.833,2.277,2.277,0,0,1-.611.056l-1.665.167c2.387,7.05,4.718,13.989,7.105,21.094.056-.167.111-.222.111-.278,1-3.275,1.943-6.55,2.942-9.826A9.165,9.165,0,0,0,162.077,124.6Z" transform="translate(-133.6 -110.546)"/>
          </g>
        </g>
        <g id="Group_35" data-name="Group 35" transform="translate(0 0.2)">
          <g id="Group_34" data-name="Group 34" transform="translate(0 0)">
            <path id="Path_137" data-name="Path 137" class="cls-1" d="M52.4.2H17.542A17.579,17.579,0,0,0,0,17.742V52.658A17.567,17.567,0,0,0,17.542,70.144H52.458A17.579,17.579,0,0,0,70,52.6V17.742A17.662,17.662,0,0,0,52.4.2Zm4.219,36.082v.444a20.143,20.143,0,0,1-2.22,8.216,21.41,21.41,0,0,1-16.32,11.713,12.136,12.136,0,0,1-2,.167H33.418a19.354,19.354,0,0,1-8.1-2.165,21.348,21.348,0,0,1-11.768-16.32,8.623,8.623,0,0,1-.222-2.054V33.618A19.4,19.4,0,0,1,15.6,25.347a21.412,21.412,0,0,1,16.209-11.6,12.812,12.812,0,0,1,2.054-.167h2.665a19.807,19.807,0,0,1,8.1,2.165A21.412,21.412,0,0,1,56.455,32.119a12.137,12.137,0,0,1,.167,2Z" transform="translate(0 -0.2)"/>
          </g>
        </g>
        <g id="Group_37" data-name="Group 37" transform="translate(44.909 25.902)">
          <g id="Group_36" data-name="Group 36">
            <path id="Path_138" data-name="Path 138" class="cls-1" d="M330.983,185.4a22.444,22.444,0,0,1-.167,4.33,28.448,28.448,0,0,1-1.332,4.718c-1.943,5.385-3.775,10.769-5.607,16.154a5.456,5.456,0,0,0-.278.888c.055,0,.055.056.111.056a19.515,19.515,0,0,0,9.437-14.155A18.827,18.827,0,0,0,330.983,185.4Z" transform="translate(-323.6 -185.4)"/>
          </g>
        </g>
      </g>
      <path id="shopify-svgrepo-com" class="cls-1" d="M42.311,8.213a.782.782,0,0,1,.11.093l4.047,4.016,5.487.412a.657.657,0,0,1,.6.552L60,63.673,38.916,68.234,0,60.943s4.993-38.621,5.182-39.99c.25-1.8.312-1.855,2.222-2.455l6.159-1.91C14.88,11,19.084,0,27.881,0a4.6,4.6,0,0,1,3.556,2.037l.319-.01c3.776,0,5.922,3.22,7.14,6.722l2.04-.631a1.807,1.807,0,0,1,1.372.1ZM31.759,24.383a11.373,11.373,0,0,0-5.316-1.019c-9.232,0-13.807,6.166-13.807,12.538,0,7.572,7.555,7.778,7.555,12.383a2.615,2.615,0,0,1-2.726,2.641c-2.963,0-6.475-3.018-6.475-3.018L9.2,53.82a13.488,13.488,0,0,0,10.1,4.156c5.566,0,9.695-4.191,9.695-10.7,0-8.275-9.208-9.626-9.208-13.158,0-.652.206-3.217,4.3-3.217a11.966,11.966,0,0,1,5.069,1.214l2.6-7.733ZM36.749,9.41c-.833-2.548-2.13-4.763-4.078-5.007a16.172,16.172,0,0,1,.789,5.316l0,.713L36.749,9.41ZM30.257,4.835c-2.147.919-4.6,3.361-5.909,8.416l6.8-2.106v-.381a16.347,16.347,0,0,0-.892-5.933ZM27.644,2.359c-6.324,0-9.873,8.3-11.368,13.392l5.374-1.667c1.279-6.674,4.3-10.014,7.123-11.341a1.989,1.989,0,0,0-1.132-.377Z" transform="translate(450.79 3721)"/>
      <path id="squarespace-svgrepo-com" class="cls-1" d="M56.638,18.117a11.657,11.657,0,0,0-16.41,0L21.85,36.492a2.917,2.917,0,0,0,4.125,4.125L44.353,22.239a5.77,5.77,0,1,1,8.16,8.16l-18.1,18.1a5.778,5.778,0,0,0,8.158,0L56.546,34.524A11.579,11.579,0,0,0,56.638,18.117Zm-6.188,6.093a2.943,2.943,0,0,0-4.125,0L27.94,42.682a5.775,5.775,0,0,1-8.155,0A2.916,2.916,0,1,0,15.66,46.8a11.657,11.657,0,0,0,16.41,0L50.448,28.429A3.067,3.067,0,0,0,50.451,24.209Zm-6.1-18.375a11.657,11.657,0,0,0-16.41,0L9.565,24.212a2.916,2.916,0,0,0,4.125,4.123L32.178,9.957a5.8,5.8,0,0,1,8.175,0,2.943,2.943,0,0,0,4.125,0,3.009,3.009,0,0,0-.073-4.123h-.052Zm-6.188,6.093a2.943,2.943,0,0,0-4.125,0L15.663,30.4A5.771,5.771,0,0,1,7.5,22.239l18.1-18.1a5.773,5.773,0,0,0-8.158,0L3.375,18.117a11.6,11.6,0,0,0,16.41,16.408L38.161,16.147a3.055,3.055,0,0,0,0-4.22Z" transform="translate(549.79 3729.654)"/>
      <path id="hubspot-svgrepo-com" class="cls-1" d="M46.869,20.774V13.329a5.746,5.746,0,0,0,3.314-5.185V7.969a5.754,5.754,0,0,0-5.737-5.737h-.175a5.755,5.755,0,0,0-5.747,5.737v.175a5.75,5.75,0,0,0,3.283,5.164l.031.02v7.465a16.237,16.237,0,0,0-7.771,3.426l.031-.02L13.606,8.236C15.457,1.323,6.438-3.1,2.1,2.592S4.394,15.8,10.581,12.2l-.031.02L30.693,27.9a16.335,16.335,0,0,0,.287,18.467l-.031-.051L24.813,52.44A5.436,5.436,0,0,0,23.3,52.2h-.01a5.325,5.325,0,1,0,5.326,5.326,5.4,5.4,0,0,0-.265-1.565l.01.041,6.065-6.065A16.354,16.354,0,1,0,46.951,20.792l-.1-.02ZM44.342,45.325a8.392,8.392,0,1,1,8.417-8.4v.01a8.386,8.386,0,0,1-8.4,8.385Z" transform="translate(635.083 3724.556)"/>
      <g id="zapier-svgrepo-com" transform="translate(734.79 3731.27)">
        <path id="Path_154" data-name="Path 154" class="cls-1" d="M51.235,17.725a9.5,9.5,0,0,1,3.467.622,6.938,6.938,0,0,1,2.739,1.925,9.267,9.267,0,0,1,1.786,3.313,15.614,15.614,0,0,1,.643,4.742q0,5.466-2.968,8.552t-8.408,3.086a14.452,14.452,0,0,1-1.868-.124,11.082,11.082,0,0,1-1.661-.331V49.24q-.5.082-1.059.124c-.374.027-.714.041-1.018.041s-.643-.014-1.017-.041a10.085,10.085,0,0,1-1.017-.124V18.221q.414-.082.851-.124c.291-.027.588-.041.893-.041q.414,0,.872.041a8.626,8.626,0,0,1,.872.124,2.571,2.571,0,0,1,.1.518q.062.435.125.931c.042.331.083.649.125.953a5.783,5.783,0,0,1,.062.58,8.408,8.408,0,0,1,1-1.284A6.64,6.64,0,0,1,47.145,18.8a7.254,7.254,0,0,1,1.827-.787A8.236,8.236,0,0,1,51.235,17.725Zm-23.334,0q4.151,0,6.311,1.884t2.159,6.025V38.928q-1.453.332-3.529.683a25.4,25.4,0,0,1-4.235.352,16.6,16.6,0,0,1-3.675-.373,7.5,7.5,0,0,1-2.782-1.2,5.56,5.56,0,0,1-1.765-2.111,7.061,7.061,0,0,1-.623-3.106,6.325,6.325,0,0,1,2.7-5.362,8.8,8.8,0,0,1,2.865-1.325,13.058,13.058,0,0,1,3.4-.435q1.328,0,2.179.062t1.433.145v-.787a4.035,4.035,0,0,0-1.246-3.4,5.867,5.867,0,0,0-3.612-.952,15.439,15.439,0,0,0-2.719.228,20.853,20.853,0,0,0-2.47.6,6.43,6.43,0,0,1-.789-3.272,19.187,19.187,0,0,1,3.114-.7A22.665,22.665,0,0,1,27.9,17.725Zm-10.587.5.207.539L6.228,36.195H16.816a11.491,11.491,0,0,1,.125,1.7,9.622,9.622,0,0,1-.125,1.575H.208L0,38.887,11.211,21.493H1.329A10.071,10.071,0,0,1,1.2,19.837a9.809,9.809,0,0,1,.125-1.616ZM29.147,29.237a6.77,6.77,0,0,0-3.923.953,3.309,3.309,0,0,0-1.35,2.9,3.542,3.542,0,0,0,.457,1.946,3.14,3.14,0,0,0,1.142,1.077,3.97,3.97,0,0,0,1.515.456,15.742,15.742,0,0,0,1.578.083,19.17,19.17,0,0,0,1.972-.1,11.877,11.877,0,0,0,1.806-.31h0v-6.75q-.623-.083-1.578-.165T29.147,29.237Zm21.175-7.951a5.423,5.423,0,0,0-1.993.373,4.9,4.9,0,0,0-1.7,1.117,5.521,5.521,0,0,0-1.2,1.885,7.256,7.256,0,0,0-.458,2.713h0v8.613a8.1,8.1,0,0,0,1.619.414,15.216,15.216,0,0,0,2.159.124,7.61,7.61,0,0,0,2.74-.476,5.428,5.428,0,0,0,2.138-1.47,7.187,7.187,0,0,0,1.412-2.506,11.057,11.057,0,0,0,.519-3.581,9.809,9.809,0,0,0-1.225-5.26A4.374,4.374,0,0,0,50.322,21.286Zm33.216-3.562a9.349,9.349,0,0,1,3.861.746,7.853,7.853,0,0,1,2.782,2.05,8.908,8.908,0,0,1,1.7,3.106,12.681,12.681,0,0,1,.582,3.913q0,.581-.042,1.222c-.027.429-.055.794-.082,1.1H77.848q.084,3.479,1.806,5.094a7.185,7.185,0,0,0,5.086,1.616,15.3,15.3,0,0,0,5.6-1.036,6.214,6.214,0,0,1,.54,1.511,9.83,9.83,0,0,1,.249,1.76,13.952,13.952,0,0,1-3.01.87,21.046,21.046,0,0,1-3.633.29,13.74,13.74,0,0,1-4.982-.808,8.74,8.74,0,0,1-5.4-5.756,14.837,14.837,0,0,1-.623-4.411,15.581,15.581,0,0,1,.6-4.41,9.934,9.934,0,0,1,1.847-3.561,8.943,8.943,0,0,1,3.135-2.4A10.379,10.379,0,0,1,83.537,17.725Zm-14.531.5V39.467a10.167,10.167,0,0,1-1.018.123c-.374.027-.714.041-1.018.041q-.415,0-.975-.041a10.088,10.088,0,0,1-1.018-.123V21.452h-2.7a5.2,5.2,0,0,1-.124-.766q-.042-.435-.042-.849c0-.275.014-.559.042-.849a5.226,5.226,0,0,1,.124-.767ZM88.4,26.795a7.816,7.816,0,0,0-.311-2.216,5.631,5.631,0,0,0-.914-1.842,4.444,4.444,0,0,0-1.537-1.263A4.835,4.835,0,0,0,83.412,21a4.9,4.9,0,0,0-3.882,1.533,7.5,7.5,0,0,0-1.64,4.266Zm10.34-8.738c.3,0,.608.014.914.041a6.871,6.871,0,0,1,.83.124c.082.414.166.961.249,1.636a14.6,14.6,0,0,1,.125,1.719,8.588,8.588,0,0,1,2.3-2.444,6.124,6.124,0,0,1,3.674-1.035c.221,0,.45.006.685.021s.437.035.6.061a6.833,6.833,0,0,1,.124.787,8.61,8.61,0,0,1,.042.87,9.165,9.165,0,0,1-.062,1.035q-.062.539-.146,1.035a2.872,2.872,0,0,0-.685-.082h-.56a7.3,7.3,0,0,0-2.138.31,4.473,4.473,0,0,0-1.827,1.1,5.457,5.457,0,0,0-1.286,2.154,10.853,10.853,0,0,0-.478,3.519h0V39.467a10.12,10.12,0,0,1-1.017.124c-.373.027-.713.041-1.016.041s-.644-.014-1.018-.041-.727-.069-1.059-.124h0V18.221q.456-.082.872-.124C98.14,18.071,98.431,18.056,98.735,18.056ZM66.132,0a7.021,7.021,0,0,1,1.145.1h0V4.108l2.845-2.837a6.93,6.93,0,0,1,1.625,1.621h0L68.9,5.729h4.023a6.87,6.87,0,0,1,.1,1.141h0v.009a6.879,6.879,0,0,1-.1,1.142H68.9l2.846,2.837a6.979,6.979,0,0,1-.744.878h0a6.972,6.972,0,0,1-.88.742h0L67.276,9.641v4.013a7.017,7.017,0,0,1-1.144.1h-.01a7.014,7.014,0,0,1-1.143-.1h0V9.641l-2.845,2.837a6.914,6.914,0,0,1-1.625-1.621h0l2.845-2.837H59.331a6.837,6.837,0,0,1-.1-1.144h0v0c0-.11.008-.248.019-.39l.008-.1c.028-.333.07-.658.07-.658h4.023L60.51,2.892a6.8,6.8,0,0,1,.744-.877h0a6.879,6.879,0,0,1,.881-.744h0l2.845,2.837V.1A7.015,7.015,0,0,1,66.124,0h0Zm0,5.156h-.007a4.132,4.132,0,0,0-1.456.264A4.128,4.128,0,0,0,64.4,6.871v.006a4.113,4.113,0,0,0,.265,1.451,4.125,4.125,0,0,0,1.455.264h.007a4.125,4.125,0,0,0,1.455-.264,4.1,4.1,0,0,0,.265-1.451V6.871a4.1,4.1,0,0,0-.265-1.451A4.125,4.125,0,0,0,66.131,5.156Z"/>
      </g>
      <path id="react-svgrepo-com" class="cls-2" d="M21.261,5.055a4.73,4.73,0,0,0-3.645.128,4.729,4.729,0,0,0-2.1,2.983,16.949,16.949,0,0,0-.418,6.328q.058.628.146,1.283a54.614,54.614,0,0,1,6.7-1.245,53.312,53.312,0,0,1,5.1-6.16l-.262-.21A16.948,16.948,0,0,0,21.261,5.055ZM30,5.618q-.364-.305-.728-.593a20.853,20.853,0,0,0-6.9-3.812,8.676,8.676,0,0,0-6.665.452A8.676,8.676,0,0,0,11.691,7a20.853,20.853,0,0,0-.574,7.858q.094,1.021.258,2.092-1.018.365-1.962.769a20.853,20.853,0,0,0-6.636,4.248A8.676,8.676,0,0,0,0,28.044,8.676,8.676,0,0,0,2.777,34.12a20.856,20.856,0,0,0,6.636,4.248q.943.4,1.962.769-.164,1.069-.258,2.092a20.854,20.854,0,0,0,.574,7.858,8.676,8.676,0,0,0,4.02,5.335,8.676,8.676,0,0,0,6.665.452,20.858,20.858,0,0,0,6.9-3.812q.364-.288.728-.593.364.305.728.593a20.858,20.858,0,0,0,6.9,3.812,8.675,8.675,0,0,0,6.665-.452,8.676,8.676,0,0,0,4.02-5.335,20.855,20.855,0,0,0,.574-7.858q-.094-1.022-.258-2.092,1.018-.365,1.962-.769a20.861,20.861,0,0,0,6.636-4.248A8.678,8.678,0,0,0,60,28.044a8.678,8.678,0,0,0-2.777-6.076,20.858,20.858,0,0,0-6.636-4.248q-.943-.4-1.962-.769.164-1.069.258-2.092A20.854,20.854,0,0,0,48.308,7a8.676,8.676,0,0,0-4.02-5.336,8.676,8.676,0,0,0-6.665-.452,20.853,20.853,0,0,0-6.9,3.812Q30.364,5.313,30,5.618Zm0,5.459c-.9.921-1.8,1.93-2.689,3.02q1.33-.053,2.689-.053t2.689.053C31.8,13.007,30.9,12,30,11.077Zm8.048,3.454a53.315,53.315,0,0,0-5.1-6.16l.262-.21a16.948,16.948,0,0,1,5.528-3.107,4.729,4.729,0,0,1,3.645.128,4.728,4.728,0,0,1,2.1,2.983,16.951,16.951,0,0,1,.418,6.328q-.058.628-.146,1.283A54.618,54.618,0,0,0,38.048,14.531ZM35.8,18.31c-1.861-.174-3.8-.266-5.8-.266s-3.936.092-5.8.266c-1.039,1.554-2.044,3.216-3,4.971-.866,1.6-1.642,3.192-2.328,4.763.686,1.571,1.462,3.164,2.328,4.763.951,1.755,1.956,3.417,3,4.971,1.862.174,3.8.266,5.8.266s3.936-.092,5.8-.266c1.039-1.554,2.044-3.216,3-4.971.866-1.6,1.642-3.192,2.328-4.763-.686-1.571-1.462-3.164-2.328-4.763C37.842,21.526,36.837,19.864,35.8,18.31Zm7.294,4.552q-.379-.743-.781-1.486-.647-1.194-1.328-2.339,1.564.3,3.009.674C43.738,20.734,43.438,21.787,43.091,22.862Zm0,10.364q-.379.743-.782,1.486-.647,1.194-1.327,2.339,1.564-.3,3.009-.674C43.738,35.354,43.438,34.3,43.091,33.226Zm4.722,1.947a55.221,55.221,0,0,0-2.354-7.129,55.219,55.219,0,0,0,2.354-7.129q.618.234,1.2.482a16.948,16.948,0,0,1,5.365,3.381A4.729,4.729,0,0,1,56,28.044a4.729,4.729,0,0,1-1.624,3.266,16.948,16.948,0,0,1-5.365,3.381Q48.431,34.939,47.813,35.173Zm-3.06,5.138a54.65,54.65,0,0,1-6.7,1.245,53.31,53.31,0,0,1-5.1,6.16l.262.21a16.947,16.947,0,0,0,5.528,3.107,4.73,4.73,0,0,0,3.645-.128,4.729,4.729,0,0,0,2.1-2.984,16.943,16.943,0,0,0,.418-6.328Q44.842,40.966,44.753,40.312ZM30,45.011c.9-.921,1.8-1.93,2.689-3.02q-1.33.053-2.689.053t-2.689-.053C28.2,43.081,29.1,44.09,30,45.011Zm-10.983-7.96q-.68-1.144-1.327-2.339-.4-.743-.782-1.486c-.347,1.075-.647,2.128-.9,3.151Q17.451,36.752,19.017,37.051Zm-3.77,3.261a54.652,54.652,0,0,0,6.7,1.245,53.312,53.312,0,0,0,5.1,6.16l-.262.21a16.947,16.947,0,0,1-5.528,3.107,4.731,4.731,0,0,1-3.645-.128,4.73,4.73,0,0,1-2.1-2.984,16.949,16.949,0,0,1-.418-6.328Q15.158,40.966,15.247,40.312Zm-3.06-5.139a55.214,55.214,0,0,1,2.354-7.129,55.223,55.223,0,0,1-2.354-7.129q-.617.234-1.2.482a16.948,16.948,0,0,0-5.365,3.381A4.729,4.729,0,0,0,4,28.044,4.729,4.729,0,0,0,5.624,31.31a16.948,16.948,0,0,0,5.365,3.381Q11.569,34.939,12.186,35.173Zm3.822-15.462c.253,1.023.553,2.076.9,3.151q.379-.743.782-1.486.647-1.194,1.327-2.339Q17.454,19.334,16.008,19.711ZM24,28.044a6,6,0,1,1,6,6A6,6,0,0,1,24,28.044Zm6-2a2,2,0,1,0,2,2A2,2,0,0,0,30,26.044Z" transform="translate(995.459 3727.928)"/>
      <path id="node-svgrepo-com" class="cls-1" d="M54.124,6a.764.764,0,0,0-.764.764V20.73l-3.166-1.846a1.285,1.285,0,0,0-1.29,0L41.3,23.32a1.28,1.28,0,0,0-.64,1.107V33.31a1.276,1.276,0,0,0,.64,1.107L48.9,38.854a1.285,1.285,0,0,0,1.29,0L57.8,34.417a1.28,1.28,0,0,0,.64-1.107V9.127a1.273,1.273,0,0,0-.63-1.1L54.5,6.1A.749.749,0,0,0,54.124,6Zm-24.9,12.71a1.286,1.286,0,0,0-.645.174L20.968,23.32a1.28,1.28,0,0,0-.64,1.107V33.31a1.276,1.276,0,0,0,.64,1.107l7.608,4.437a1.287,1.287,0,0,0,1.29,0l7.608-4.437a1.28,1.28,0,0,0,.64-1.107V24.427a1.276,1.276,0,0,0-.64-1.107l-7.608-4.437A1.286,1.286,0,0,0,29.221,18.71Zm40.655,0a1.268,1.268,0,0,0-.645.174L61.623,23.32a1.28,1.28,0,0,0-.64,1.107V33.31a1.276,1.276,0,0,0,.64,1.107L69,38.878a1.266,1.266,0,0,0,1.3.01l3.628-2.109a.568.568,0,0,0,0-.983l-7.861-4.63V26.605l3.811-2.218,3.811,2.218v3.176a.373.373,0,0,0,.6.347c.96-.564,3.856-2.243,3.856-2.243a1.27,1.27,0,0,0,.63-1.1V24.427a1.276,1.276,0,0,0-.64-1.107l-7.608-4.437A1.275,1.275,0,0,0,69.876,18.71Zm-60.983,0a1.268,1.268,0,0,0-.645.174L.64,23.32A1.288,1.288,0,0,0,0,24.432v11.34a.717.717,0,0,0,1.077.62l3.375-1.965a1.273,1.273,0,0,0,.63-1.1V26.615l3.811-2.223L12.7,26.615V33.33a1.273,1.273,0,0,0,.63,1.1l3.375,1.965a.716.716,0,0,0,1.077-.62V24.432a1.288,1.288,0,0,0-.64-1.112L9.538,18.888A1.268,1.268,0,0,0,8.893,18.715Zm40.655,5.672L53.36,26.61v4.516L49.548,33.35l-3.811-2.223V26.61Zm20.328,1.95L67.7,27.608v2.536l2.179,1.266,2.179-1.266V27.608ZM39.146,36.486a1.538,1.538,0,0,0-.754.194l-7.146,4.129a1.489,1.489,0,0,0-.754,1.3v8.248a1.528,1.528,0,0,0,.754,1.3l1.881,1.072a3.067,3.067,0,0,0,1.643.447,1.974,1.974,0,0,0,2.114-2.228V42.8a.209.209,0,0,0-.208-.213h-.9a.213.213,0,0,0-.213.213v8.149c0,.617-.652,1.251-1.717.72l-1.955-1.127a.231.231,0,0,1-.109-.189V42.1a.225.225,0,0,1,.109-.2l7.146-4.119a.232.232,0,0,1,.223,0l7.151,4.119a.211.211,0,0,1,.109.2v8.248a.237.237,0,0,1-.109.2l-7.151,4.134a.232.232,0,0,1-.223,0L37.206,53.6a.209.209,0,0,0-.174-.015,4.278,4.278,0,0,1-1.077.5c-.125.038-.294.114.065.313L38.392,55.8a1.63,1.63,0,0,0,.754.2,1.384,1.384,0,0,0,.744-.208l7.146-4.134a1.489,1.489,0,0,0,.754-1.3V42.109a1.531,1.531,0,0,0-.754-1.3L39.891,36.68A1.483,1.483,0,0,0,39.146,36.486Zm11.146,3.806a1.372,1.372,0,1,0,1.37,1.37A1.356,1.356,0,0,0,50.293,40.293Zm-.015.218a1.154,1.154,0,0,1,1.166,1.151,1.186,1.186,0,0,1-1.166,1.166,1.159,1.159,0,0,1,0-2.318Zm-.5.372v1.543h.293v-.615h.273c.112,0,.138.048.164.134,0,.013.047.413.06.486h.318a1.818,1.818,0,0,1-.074-.412c-.036-.2-.047-.335-.258-.347a.362.362,0,0,0,.3-.382c0-.409-.355-.407-.541-.407Zm.293.248h.248c.076,0,.223,0,.223.208a.209.209,0,0,1-.238.223h-.233Zm-9.007,1.261c-2.04,0-3.251.87-3.251,2.3,0,1.57,1.212,1.99,3.166,2.189,2.338.234,2.521.57,2.521,1.027,0,.8-.645,1.136-2.154,1.136-1.893,0-2.309-.469-2.447-1.409a.207.207,0,0,0-.213-.174h-.928a.209.209,0,0,0-.208.213c0,1.2.654,2.635,3.782,2.635,2.294,0,3.593-.891,3.593-2.452,0-1.545-1.04-1.956-3.241-2.253-2.226-.3-2.447-.447-2.447-.968,0-.432.182-1,1.826-1,1.471,0,2.02.322,2.243,1.31a.192.192,0,0,0,.194.159h.928a.209.209,0,0,0,.149-.06.186.186,0,0,0,.05-.159C44.478,43.186,43.351,42.392,41.062,42.392Z" transform="translate(882.075 3724.973)"/>
      <path id="mongodb-svgrepo-com" class="cls-1" d="M28.622,19.829c-2.631-11.583-8.837-15.39-9.5-16.846A18.72,18.72,0,0,1,17.591,0c0,.04-.008.065-.01.1V.129h0c0,.031-.006.052-.008.081V.242h0c0,.021,0,.038,0,.054V.35h-.006A.4.4,0,0,1,17.549.4V.446h0a.149.149,0,0,1,0,.044V.531h0c0,.021,0,.046,0,.067v0c-.006.035-.012.071-.019.1V.723h0A.11.11,0,0,0,17.5.748V.783H17.5V.829h-.01V.867h-.01V.91h-.008V.95H17.46V.985h-.013v.029h-.008v.038H17.43v.029h-.01v.027h-.006V1.14h-.008a.013.013,0,0,0,0,.008v.021H17.4a.026.026,0,0,0,0,.012v.013h0a.092.092,0,0,0,0,.021c-.006.015-.015.029-.021.044v0a.063.063,0,0,0-.01.015v.017h-.008V1.31h-.01v.017H17.33v.021h-.012v.029H17.31v.008H17.3V1.4h-.008v.023h-.008v.017h-.013v.023h-.008v.017h-.01V1.5h-.006v.021h-.01v.017h-.008v.012H17.22v.017h-.012v.019H17.2V1.6h-.01v.017H17.18v.023h-.01v.008h-.006V1.66h-.013v.008h-.008V1.69h-.008V1.7h-.008v.017h-.01v.012H17.11l0,.008v.008h0s0,0,0,.008v0h0a.034.034,0,0,1-.008.015v.006h0a.391.391,0,0,0-.025.038v0a.094.094,0,0,0-.019.021v0h0s-.006,0-.006.006v.006h0l-.006.006v0h0s0,0-.006.008v.008h-.006l0,0v0h0s0,0,0,.006V1.9h-.008s0,0,0,.006v.012h-.006v.008h-.008v.013H16.96v.017h-.01V1.938h-.01v.008H16.93v.012h-.01v.017h-.01v.008H16.9V2h-.008V2h-.008v.017h-.012v.008h-.008v.013h-.01V2.05h-.008v.01h-.01v.021h0V2.09h-.012V2.1H16.81v0H16.8v.008h-.01v.021h-.008v.008h-.01V2.15h-.008v.013h-.01v.008h-.01v.008h-.008v.008h-.008v.021h-.008v.01h-.012v.008H16.7v.008h-.01v.013h-.008v.008h-.01v.015H16.66v.008h-.012v.013h0V2.3h-.008v.008h-.01v.008h-.008v.013h-.01v.008H16.6a.006.006,0,0,0,0,0v0h0l-.008.008a.039.039,0,0,1-.008.006v.013h-.008v.01H16.56v.008h-.008V2.4h-.006l-.006.006v.006h0l0,0v.006h0a.209.209,0,0,1-.029.033l-.025.021a.762.762,0,0,0-.081.067.439.439,0,0,0-.046.035v0h0l-.1.081v0l-.154.129v0h0c-.119.1-.244.208-.387.331v0h0c-.352.308-.771.7-1.24,1.183l-.031.031-.008.008a28.684,28.684,0,0,0-7.769,18.91,21.6,21.6,0,0,0,.012,2.383v.019a22.7,22.7,0,0,0,2.975,9.908v0A26.1,26.1,0,0,0,11.562,38.5v0A26.66,26.66,0,0,0,16.8,43.763a17.408,17.408,0,0,1,.833,5.79L18.974,50a24.987,24.987,0,0,1,.11-5.254,3.246,3.246,0,0,1,.727-1.379,17.46,17.46,0,0,0,1.66-1.344c.037-.04.058-.075.092-.113,3.169-2.954,9.087-10.229,7.058-22.081Z" transform="translate(1106.632 3730.973)"/>
      <path id="html5-svgrepo-com" class="cls-1" d="M1.5,0H45.25L41.271,44.923,23.327,50,5.485,44.921ZM16.148,20.313l-.483-5.663,20.956.006L37.1,9.194,9.65,9.187,11.1,25.875H30.117l-.679,7.138-6.062,1.675L17.219,33l-.392-4.4H11.392l.688,8.69,11.3,3.021,11.206-3.006,1.55-16.994H16.148Z" transform="translate(1187.084 3730.973)"/>
      <path id="css3-svgrepo-com" class="cls-1" d="M64.6,226l-1.5,7.45H93.3l-.95,4.8H62.15l-1.5,7.4h30.2L89.2,254.1,77,258.15,66.45,254.1l.75-3.65H59.75L58,259.35,75.45,266l20.1-6.65L102.2,226Z" transform="translate(1227.25 3509.973)"/>
      <path id="js-svgrepo-com" class="cls-1" d="M2,2V52H52V2ZM29.211,40.995c0,4.866-2.857,7.088-7.02,7.088a7.3,7.3,0,0,1-7.054-4.3l3.829-2.311c.737,1.305,1.407,2.411,3.025,2.411,1.539,0,2.521-.6,2.521-2.957V24.957h4.7Zm11.114,7.088c-4.364,0-7.187-2.075-8.561-4.8l3.829-2.209a5.128,5.128,0,0,0,4.632,2.857c1.941,0,3.193-.971,3.193-2.321,0-1.607-1.273-2.177-3.427-3.125l-1.171-.5c-3.393-1.439-5.636-3.259-5.636-7.087,0-3.527,2.689-6.205,6.875-6.205a6.922,6.922,0,0,1,6.675,3.761l-3.661,2.345a3.2,3.2,0,0,0-3.025-2.009,2.04,2.04,0,0,0-2.243,2.009c0,1.407.871,1.975,2.891,2.857l1.171.5c4,1.707,6.239,3.461,6.239,7.388,0,4.22-3.327,6.539-7.78,6.539Z" transform="translate(1380.459 3726.692)"/>
    </g>
  </g>
</svg>
